# xmcd
#
# Track frame offsets:
#	150
#	16458
#	30885
#	45223
#	58833
#	72784
#	86360
#	101002
#	114674
#	130591
#	143238
#	159186
#	173092
#	189354
#
# Disc length: 2737 seconds
#
# Revision: 0
# Processed by: cddbd v1.5.1PL2 Copyright (c) Steve Scherf et al.
# Submitted via: audiograbber 1.83.01
#
DISCID=a50aaf0e
DTITLE=Bronco - Sin Riendas
DYEAR=2004
DGENRE=Other
TTITLE0=Basta
TTITLE1=Imposible
TTITLE2=Señor Mesero
TTITLE3=Ya Me Canse
TTITLE4=Perdoname
TTITLE5=Pasito Presumido
TTITLE6=Sin Volverte A Ver
TTITLE7=El Gigante
TTITLE8=Los Compadres
TTITLE9=Choche Diet
TTITLE10=Cuando Yo Me Vaya
TTITLE11=Sonambulo
TTITLE12=Basta (Norteña)
TTITLE13=Perdoname (Pop)
EXTD=
EXTT0=
EXTT1=
EXTT2=
EXTT3=
EXTT4=
EXTT5=
EXTT6=
EXTT7=
EXTT8=
EXTT9=
EXTT10=
EXTT11=
EXTT12=
EXTT13=
PLAYORDER=
